<svg width="512" height="512" xmlns="http://www.w3.org/2000/svg">

 <g>
  <title>background</title>
  <rect fill="none" id="canvas_background" height="402" width="582" y="-1" x="-1"/>
 </g>
 <g>
  <title>Layer 1</title>
  <path id="svg_1" fill="#306A92" d="m256.5,20c-130.1,0 -235.5,105.4 -235.5,235.5s105.4,235.5 235.5,235.5s235.5,-105.4 235.5,-235.5s-105.4,-235.5 -235.5,-235.5zm-0.5,440.5c-112.9,0 -204.5,-91.6 -204.5,-204.5s91.6,-204.5 204.5,-204.5s204.5,91.6 204.5,204.5s-91.6,204.5 -204.5,204.5z"/>
  <path id="svg_2" opacity="0.2" fill="#FFFFFF" d="m423.1,89l-22.4,22.4c37,37 59.8,88.1 59.8,144.6c0,112.9 -91.6,204.5 -204.5,204.5c-56.4,0 -107.6,-22.9 -144.6,-59.8l-21.4,21.4c92,92 241.1,92 333,0s92,-241.1 0.1,-333.1z"/>
  <circle id="svg_3" fill="#306A92" r="180" cy="256" cx="256"/>
  <path id="svg_4" fill-rule="evenodd" clip-rule="evenodd" fill="#E6E7E8" d="m178.4,151.6l155.1,0c14.7,0 26.8,12.1 26.8,26.8l0,155.1c0,14.7 -12.1,26.8 -26.8,26.8l-155.1,0c-14.7,0 -26.8,-12.1 -26.8,-26.8l0,-155.1c0,-14.7 12.1,-26.8 26.8,-26.8l0,0zm125.3,23.2c-5.2,0 -9.4,4.2 -9.4,9.4l0,22.5c0,5.2 4.2,9.4 9.4,9.4l23.6,0c5.2,0 9.4,-4.2 9.4,-9.4l0,-22.5c0,-5.2 -4.2,-9.4 -9.4,-9.4l-23.6,0l0,0zm33.1,65.1l-18.4,0c1.7,5.7 2.7,11.7 2.7,17.9c0,34.7 -29,62.9 -64.9,62.9c-35.8,0 -64.9,-28.1 -64.9,-62.9c0,-6.2 0.9,-12.2 2.7,-17.9l-19.2,0l0,88.2c0,4.6 3.7,8.3 8.3,8.3l145.4,0c4.6,0 8.3,-3.7 8.3,-8.3l0,-88.2l0,0zm-80.6,-25c-23.2,0 -41.9,18.2 -41.9,40.6c0,22.4 18.8,40.6 41.9,40.6c23.2,0 41.9,-18.2 41.9,-40.6c0,-22.4 -18.7,-40.6 -41.9,-40.6z"/>
  <path id="svg_5" opacity="0.2" fill="#FFFFFF" d="m128.1,382.6c-70.3,-70.3 -70.3,-184.3 0,-254.6s184.3,-70.3 254.6,0"/>
 </g>
</svg>