<?xml version="1.0" ?><svg style="enable-background:new 0 0 512 512;" version="1.1" viewBox="0 0 512 512" xml:space="preserve" xmlns="http://www.w3.org/2000/svg" xmlns:xlink="http://www.w3.org/1999/xlink"><g id="outerdark"><path d="M256.5,20C126.4,20,21,125.4,21,255.5S126.4,491,256.5,491S492,385.6,492,255.5S386.6,20,256.5,20z    M256,460.5c-112.9,0-204.5-91.6-204.5-204.5S143.1,51.5,256,51.5S460.5,143.1,460.5,256S368.9,460.5,256,460.5z" style="fill:#007FB1;"/></g><g id="outerlight"><path d="M423.1,89l-22.4,22.4c37,37,59.8,88.1,59.8,144.6c0,112.9-91.6,204.5-204.5,204.5   c-56.4,0-107.6-22.9-144.6-59.8L90,422.1c92,92,241.1,92,333,0S515,181,423.1,89z" style="opacity:0.2;fill:#FFFFFF;"/></g><g id="innerdark"><circle cx="256" cy="256" r="180" style="fill:#007FB1;"/></g><g id="Linkedin"><g><path d="M199.5,354.8V221.5h-44.3v133.4H199.5L199.5,354.8z     M177.4,203.3c15.5,0,25.1-10.2,25.1-23c-0.3-13.1-9.6-23-24.8-23c-15.2,0-25.1,10-25.1,23c0,12.8,9.6,23,24.5,23H177.4    L177.4,203.3z" style="fill-rule:evenodd;clip-rule:evenodd;fill:#E6E7E8;"/><path d="M224.1,354.8h44.3v-74.5c0-4,0.3-8,1.5-10.8    c3.2-8,10.5-16.2,22.7-16.2c16,0,22.5,12.2,22.5,30.2v71.4h44.3v-76.5c0-41-21.9-60-51-60c-23.9,0-34.4,13.4-40.2,22.5h0.3v-19.3    h-44.3C224.7,234,224.1,354.8,224.1,354.8L224.1,354.8z" style="fill-rule:evenodd;clip-rule:evenodd;fill:#E6E7E8;"/></g></g><g id="innerlight"><path d="M128.1,382.6c-70.3-70.3-70.3-184.3,0-254.6s184.3-70.3,254.6,0" style="opacity:0.2;fill:#FFFFFF;"/><g/><g/><g/><g/><g/><g/></g></svg>